<svg xmlns="http://www.w3.org/2000/svg" width="15" height="15" viewBox="0 0 15 15">
    <g fill="none" fill-rule="evenodd">
        <path d="M-8.129-10.14h31.873v31.873H-8.129z"/>
        <path fill="#FFF" d="M.657 4.927h2.824v9.841H.657V4.927zm1.34-1.231h-.02C.955 3.696.292 2.944.292 1.99c0-.972.682-1.71 1.725-1.71 1.042 0 1.682.736 1.703 1.707 0 .953-.661 1.708-1.723 1.708zM14.78 14.769h-3.202V9.675c0-1.333-.501-2.242-1.602-2.242-.843 0-1.311.614-1.53 1.206-.081.212-.068.508-.068.805v5.325H5.205s.041-9.022 0-9.842h3.173V6.47c.187-.675 1.2-1.639 2.818-1.639 2.007 0 3.584 1.417 3.584 4.464v5.473z"/>
    </g>
</svg>